<?xml version="1.0" encoding="UTF-8"?>
<svg id="Calque_2" data-name="Calque 2" xmlns="http://www.w3.org/2000/svg" viewBox="0 0 187.16 286.33">
  <defs>
    <style>
      .cls-1 {
        font-size: 72px;
        letter-spacing: -.04em;
      }

      .cls-1, .cls-2 {
        font-family: LibreBaskerville-Regular, 'Libre Baskerville';
      }

      .cls-3 {
        fill: #fbfbfb;
        stroke: #12100b;
        stroke-miterlimit: 10;
        stroke-width: 1.5px;
      }

      .cls-2 {
        font-size: 24px;
        letter-spacing: -.04em;
      }

      .cls-2, .cls-4 {
        fill: #1d1d1b;
      }
    </style>
  </defs>
  <g id="pique-valet">
    <g>
      <g>
        <path class="cls-3" d="M171.41.75H15.75C7.47.75.75,7.47.75,15.75v254.83c0,8.28,6.72,15,15,15h155.66c8.28,0,15-6.72,15-15V15.75c0-8.28-6.72-15-15-15Z"/>
        <g>
          <text class="cls-2" transform="translate(7.7 34.68)"><tspan x="0" y="0">V</tspan></text>
          <text class="cls-2" transform="translate(179.46 251.65) rotate(-180)"><tspan x="0" y="0">V</tspan></text>
        </g>
      </g>
      <text class="cls-1" transform="translate(65.54 165.67)"><tspan x="0" y="0">V</tspan></text>
    </g>
    <g>
      <path class="cls-4" d="M21.17,54.97c2.63,0,4.76-2.13,4.76-4.76,0-1.04-.34-2-.9-2.78-1.26-2.14-7.37-7.67-8.42-9.52-1.49,2.91-7.69,7.52-8.64,9.95-.39.69-.62,1.49-.62,2.35,0,2.63,2.13,4.76,4.76,4.76,1.71,0,3.22-.91,4.05-2.27,0,0,0,0,0,.01l-4.65,8.68s1.68-1.08,4.97-1.08,5.08,1.01,5.08,1.01l-4.45-8.64s0-.01,0-.02c.83,1.38,2.34,2.3,4.07,2.3Z"/>
      <path class="cls-4" d="M165.99,231.36c-2.63,0-4.76,2.13-4.76,4.76,0,1.04.34,2,.9,2.78,1.26,2.14,7.37,7.67,8.42,9.52,1.49-2.91,7.69-7.52,8.64-9.95.39-.69.62-1.49.62-2.35,0-2.63-2.13-4.76-4.76-4.76-1.71,0-3.22.91-4.05,2.27,0,0,0,0,0-.01l4.65-8.68s-1.68,1.08-4.97,1.08-5.08-1.01-5.08-1.01l4.45,8.64s0,.01,0,.02c-.83-1.38-2.34-2.3-4.07-2.3Z"/>
    </g>
  </g>
</svg>