<?xml version="1.0" encoding="UTF-8"?>
<svg id="Calque_2" data-name="Calque 2" xmlns="http://www.w3.org/2000/svg" viewBox="0 0 187.16 286.33">
  <defs>
    <style>
      .cls-1 {
        font-size: 72px;
        letter-spacing: -.04em;
      }

      .cls-1, .cls-2 {
        font-family: LibreBaskerville-Regular, 'Libre Baskerville';
      }

      .cls-3 {
        fill: #fbfbfb;
        stroke: #12100b;
        stroke-miterlimit: 10;
        stroke-width: 1.5px;
      }

      .cls-2 {
        font-size: 24px;
        letter-spacing: -.04em;
      }

      .cls-2, .cls-4 {
        fill: #1d1d1b;
      }
    </style>
  </defs>
  <g id="trefle-vlaet">
    <g>
      <g>
        <path class="cls-3" d="M171.41.75H15.75C7.47.75.75,7.47.75,15.75v254.83c0,8.28,6.72,15,15,15h155.66c8.28,0,15-6.72,15-15V15.75c0-8.28-6.72-15-15-15Z"/>
        <g>
          <text class="cls-2" transform="translate(7.7 34.68)"><tspan x="0" y="0">V</tspan></text>
          <path class="cls-4" d="M24.16,45.8c-1.79,0-3.34,1.05-4.07,2.56,0,0,0,0,0,0-.12.21-.81.78-2.36,1.19.03-.46.95-2.89,1.76-3.38,0,0,.01-.01.02-.02,1.18-.81,1.96-2.18,1.96-3.72,0-2.49-2.02-4.51-4.51-4.51s-4.51,2.02-4.51,4.51c0,1.79,1.05,3.34,2.56,4.07,0,0,0,0,0,0,.23.13.89.95,1.3,2.83-.91-.32-2.28-.97-2.64-1.55,0,0-.01-.01-.02-.02-.81-1.18-2.18-1.96-3.72-1.96-2.49,0-4.51,2.02-4.51,4.51s2.02,4.51,4.51,4.51c1.79,0,3.34-1.05,4.07-2.56,0,0,0,0,0,0,.12-.22.88-.83,2.58-1.25v1.88s0,0,0,0l-4.55,8.5s1.65-1.05,4.87-1.05,4.98.99,4.98.99l-4.35-8.45v-1.68c.88.28,2.51,1,2.9,1.64,0,0,.01.01.02.02.81,1.18,2.18,1.96,3.72,1.96,2.49,0,4.51-2.02,4.51-4.51s-2.02-4.51-4.51-4.51Z"/>
          <text class="cls-2" transform="translate(179.46 251.65) rotate(-180)"><tspan x="0" y="0">V</tspan></text>
          <path class="cls-4" d="M163,240.53c1.79,0,3.34-1.05,4.07-2.56,0,0,0,0,0,0,.12-.21.81-.78,2.36-1.19-.03.46-.95,2.89-1.76,3.38,0,0-.01.01-.02.02-1.18.81-1.96,2.18-1.96,3.72,0,2.49,2.02,4.51,4.51,4.51s4.51-2.02,4.51-4.51c0-1.79-1.05-3.34-2.56-4.07,0,0,0,0,0,0-.23-.13-.89-.95-1.3-2.83.91.32,2.28.97,2.64,1.55,0,0,.01.01.02.02.81,1.18,2.18,1.96,3.72,1.96,2.49,0,4.51-2.02,4.51-4.51s-2.02-4.51-4.51-4.51c-1.79,0-3.34,1.05-4.07,2.56,0,0,0,0,0,0-.12.22-.88.83-2.58,1.25v-1.88s0,0,0,0l4.55-8.5s-1.65,1.05-4.87,1.05-4.98-.99-4.98-.99l4.35,8.45v1.68c-.88-.28-2.51-1-2.9-1.64,0,0-.01-.01-.02-.02-.81-1.18-2.18-1.96-3.72-1.96-2.49,0-4.51,2.02-4.51,4.51s2.02,4.51,4.51,4.51Z"/>
        </g>
      </g>
      <text class="cls-1" transform="translate(65.54 165.67)"><tspan x="0" y="0">V</tspan></text>
    </g>
  </g>
</svg>